REM DIRINDEX 1\2,1\3,1\4,1\5
REM DIRNAME "folder01","folder02","folder03","folder04","folder05"
TITLE ""
FILE "1Q_t_0229-0238.mp3" MP3
  TRACK 01 AUDIO
    TITLE "3:cjc172_1605"
    INDEX 01 00:00:00
  TRACK 02 AUDIO
    TITLE "0:"
    INDEX 01 00:01:27
  TRACK 03 AUDIO
    TITLE "4:cjc172_1606"
    INDEX 01 00:01:47
  TRACK 04 AUDIO
    TITLE "0:"
    INDEX 01 00:03:56
  TRACK 05 AUDIO
    TITLE "5:cjc172_1607"
    INDEX 01 00:03:71
  TRACK 06 AUDIO
    TITLE "0:"
    INDEX 01 00:09:19
  TRACK 07 AUDIO
    TITLE "3:cjc172_1608"
    INDEX 01 00:09:70
  TRACK 08 AUDIO
    TITLE "0:"
    INDEX 01 00:11:14
  TRACK 09 AUDIO
    TITLE "4:cjc172_1609"
    INDEX 01 00:11:32
  TRACK 10 AUDIO
    TITLE "0:"
    INDEX 01 00:14:30
  TRACK 11 AUDIO
    TITLE "5:cjc172_1610"
    INDEX 01 00:14:48
  TRACK 12 AUDIO
    TITLE "0:"
    INDEX 01 00:21:26
  TRACK 13 AUDIO
    TITLE "3:cjc172_1611"
    INDEX 01 00:22:04
  TRACK 14 AUDIO
    TITLE "0:"
    INDEX 01 00:23:29
  TRACK 15 AUDIO
    TITLE "4:cjc172_1612"
    INDEX 01 00:23:43
  TRACK 16 AUDIO
    TITLE "0:"
    INDEX 01 00:25:73
  TRACK 17 AUDIO
    TITLE "5:cjc172_1613"
    INDEX 01 00:26:12
  TRACK 18 AUDIO
    TITLE "0:"
    INDEX 01 00:31:72
  TRACK 19 AUDIO
    TITLE "3:cjc172_1614"
    INDEX 01 00:32:53
  TRACK 20 AUDIO
    TITLE "0:"
    INDEX 01 00:33:57
  TRACK 21 AUDIO
    TITLE "4:cjc172_1615"
    INDEX 01 00:33:72
  TRACK 22 AUDIO
    TITLE "0:"
    INDEX 01 00:36:36
  TRACK 23 AUDIO
    TITLE "5:cjc172_1616"
    INDEX 01 00:36:51
  TRACK 24 AUDIO
    TITLE "0:"
    INDEX 01 00:42:52
  TRACK 25 AUDIO
    TITLE "3:cjc172_1617"
    INDEX 01 00:43:30
  TRACK 26 AUDIO
    TITLE "0:"
    INDEX 01 00:44:21
  TRACK 27 AUDIO
    TITLE "4:cjc172_1618"
    INDEX 01 00:44:39
  TRACK 28 AUDIO
    TITLE "0:"
    INDEX 01 00:45:54
  TRACK 29 AUDIO
    TITLE "5:cjc172_1619"
    INDEX 01 00:45:70
  TRACK 30 AUDIO
    TITLE "0:"
    INDEX 01 00:52:01
  TRACK 31 AUDIO
    TITLE "3:cjc172_1620"
    INDEX 01 00:52:54
  TRACK 32 AUDIO
    TITLE "0:"
    INDEX 01 00:53:57
  TRACK 33 AUDIO
    TITLE "4:cjc172_1621"
    INDEX 01 00:53:75
  TRACK 34 AUDIO
    TITLE "0:"
    INDEX 01 00:55:21
  TRACK 35 AUDIO
    TITLE "5:cjc172_1622"
    INDEX 01 00:55:35
  TRACK 36 AUDIO
    TITLE "0:"
    INDEX 01 01:01:41
  TRACK 37 AUDIO
    TITLE "3:cjc172_1623"
    INDEX 01 01:02:19
  TRACK 38 AUDIO
    TITLE "0:"
    INDEX 01 01:03:38
  TRACK 39 AUDIO
    TITLE "4:cjc172_1624"
    INDEX 01 01:03:54
  TRACK 40 AUDIO
    TITLE "0:"
    INDEX 01 01:04:73
  TRACK 41 AUDIO
    TITLE "5:cjc172_1625"
    INDEX 01 01:05:14
  TRACK 42 AUDIO
    TITLE "0:"
    INDEX 01 01:10:40
  TRACK 43 AUDIO
    TITLE "3:cjc172_1626"
    INDEX 01 01:11:18
  TRACK 44 AUDIO
    TITLE "0:"
    INDEX 01 01:12:57
  TRACK 45 AUDIO
    TITLE "4:cjc172_1627"
    INDEX 01 01:12:72
  TRACK 46 AUDIO
    TITLE "0:"
    INDEX 01 01:14:24
  TRACK 47 AUDIO
    TITLE "5:cjc172_1628"
    INDEX 01 01:14:38
  TRACK 48 AUDIO
    TITLE "0:"
    INDEX 01 01:21:13
  TRACK 49 AUDIO
    TITLE "3:cjc172_1629"
    INDEX 01 01:21:70
  TRACK 50 AUDIO
    TITLE "0:"
    INDEX 01 01:23:12
  TRACK 51 AUDIO
    TITLE "4:cjc172_1630"
    INDEX 01 01:23:27
  TRACK 52 AUDIO
    TITLE "0:"
    INDEX 01 01:24:64
  TRACK 53 AUDIO
    TITLE "5:cjc172_1631"
    INDEX 01 01:25:03
  TRACK 54 AUDIO
    TITLE "0:"
    INDEX 01 01:31:40
  TRACK 55 AUDIO
    TITLE "3:cjc172_1632"
    INDEX 01 01:32:20
  TRACK 56 AUDIO
    TITLE "0:"
    INDEX 01 01:33:63
  TRACK 57 AUDIO
    TITLE "4:cjc172_1633"
    INDEX 01 01:34:06
  TRACK 58 AUDIO
    TITLE "0:"
    INDEX 01 01:37:59
  TRACK 59 AUDIO
    TITLE "5:cjc172_1634"
    INDEX 01 01:37:72
  TRACK 60 AUDIO
    TITLE "0:"
    INDEX 01 01:43:71
